<?xml version="1.0" encoding="utf-8"?>
<!-- Generator: Adobe Illustrator 26.0.2, SVG Export Plug-In . SVG Version: 6.00 Build 0)  -->
<svg version="1.1" id="Lager_1" xmlns="http://www.w3.org/2000/svg" xmlns:xlink="http://www.w3.org/1999/xlink" x="0px" y="0px"
	 viewBox="0 0 200 200" style="enable-background:new 0 0 200 200;" xml:space="preserve">
<style type="text/css">
	.st0{fill:none;}
</style>
<path class="st0" d="M157.6,122.8c2-5.4,2.9-10.3,2.4-13.3C160.2,111.2,159.6,116.6,157.6,122.8z"/>
<path class="st0" d="M94.9,132.2L94.9,132.2c0.5,0,1.1,0,1.6,0.1C95.9,132.3,95.4,132.2,94.9,132.2z"/>
<path class="st0" d="M94.9,176.4c-0.6,0-1.1,0-1.7-0.1C93.8,176.3,94.3,176.4,94.9,176.4z"/>
<path class="st0" d="M93.2,132.3c0.5,0,1.1-0.1,1.7-0.1C94.3,132.2,93.8,132.3,93.2,132.3z"/>
<path class="st0" d="M69.2,127.7c10.4-9.4,26.2-12.6,39.4-7.9c-4.2-1.7-8.9-2.7-13.7-2.7C84.9,117.1,75.8,121.2,69.2,127.7z"/>
<path class="st0" d="M92.3,176.2c-0.6-0.1-1.2-0.2-1.8-0.3C91.1,176,91.7,176.1,92.3,176.2z"/>
<path class="st0" d="M90.5,132.7c0.6-0.1,1.2-0.2,1.8-0.3C91.7,132.5,91.1,132.6,90.5,132.7z"/>
<path class="st0" d="M96.5,176.3c-0.5,0-1.1,0.1-1.6,0.1C95.4,176.4,96,176.3,96.5,176.3z"/>
<path class="st0" d="M99,47.2c1-1.6,2.5-3,4.4-4.2C101.3,43.9,99.8,45.4,99,47.2z"/>
<path class="st0" d="M105.2,58.3c0.1,0,0.2-0.1,0.3-0.1c-2.1,0.2-4.1-0.6-6.2-2.9c-0.2-0.3-0.4-0.6-0.5-0.9
	C99.9,56.7,102,58.3,105.2,58.3z"/>
<path class="st0" d="M143.8,142.8c-3.7,2.6-7.9,4.2-12.6,4.8C135.9,147.5,140.1,145.7,143.8,142.8z"/>
<path class="st0" d="M116,52.2c1.8-1.5,3.7-3,5.9-4.3C120,48.9,118,50.5,116,52.2z"/>
<path class="st0" d="M131.2,147.5c-0.4-2.2-1-4.4-1.8-6.4C130.1,143.1,130.7,145.3,131.2,147.5z"/>
<path class="st0" d="M59.2,163.4c-0.8-3.6-1.2-7-1.2-10.2c0,0.3,0,0.6,0,0.9C57.9,157.3,58.4,160.4,59.2,163.4z"/>
<path class="st0" d="M131.8,154.2c0,0.3,0,0.6,0,0.9C131.8,154.8,131.8,154.5,131.8,154.2z"/>
<path class="st0" d="M131.2,147.5c0.4,2.2,0.6,4.2,0.6,6.3C131.8,151.7,131.6,149.6,131.2,147.5z"/>
<path class="st0" d="M99.2,175.9c-0.5,0.1-1,0.2-1.5,0.2C98.2,176.1,98.7,176,99.2,175.9z"/>
<path class="st0" d="M113.7,142.8c-2.8-5-7.6-8.9-14.4-10.2C105.3,133.9,110.5,137.7,113.7,142.8z"/>
<path class="st0" d="M90.4,132.7c-6.8,1.3-11.6,5.2-14.4,10.2C79.1,137.7,84.3,133.9,90.4,132.7z"/>
<path class="st0" d="M99.4,175.9c6.9-1.3,11.7-5.3,14.4-10.4C110.7,170.8,105.5,174.6,99.4,175.9z"/>
<path class="st0" d="M97.5,132.4c0.5,0.1,1.1,0.1,1.6,0.3C98.6,132.6,98.1,132.5,97.5,132.4z"/>
<path class="st0" d="M76,165.7c2.8,5,7.6,8.9,14.4,10.2C84.3,174.7,79.1,170.9,76,165.7z"/>
<path class="st0" d="M58.2,148.5c1.1-8.6,5.2-15.6,10.9-20.8c6.7-6.5,15.7-10.6,25.7-10.6c4.8,0,9.5,1,13.7,2.7
	c9,3.2,16.8,10.1,20.8,21.3c0.8,2.1,1.4,4.2,1.8,6.4c4.7-0.5,8.9-2.2,12.6-4.8c6.3-4.9,11-12.8,13.7-20c2.1-6.2,2.7-11.5,2.4-13.3
	c-5.4-20.1-5.9-31.3-5.9-37.4c-6.3-1.4-13.7-3.4-22.8-6.1c-25.8-7.3-62.8-17.7-105.5-18.6v101.5C37,148.7,47.8,148.6,58.2,148.5z"/>
<path d="M143.8,142.8c2.1-1.5,4-3.3,5.8-5.4c3.8-4.5,6.3-9.8,7.9-14.6C154.8,130,150.1,137.9,143.8,142.8z"/>
<path d="M105.6,58.2c3.5-0.3,7-3.2,10.4-6.1C112.7,54.9,109.6,57.4,105.6,58.2z"/>
<path d="M98.9,54.5c-1.1-2.2-1.1-5,0.1-7.4C97.6,49.4,97.4,51.9,98.9,54.5z"/>
<path d="M121.9,47.8L121.9,47.8C122,47.8,122,47.8,121.9,47.8C122,47.8,122,47.8,121.9,47.8L121.9,47.8z"/>
<path d="M108.6,119.8c9.6,3.9,17.2,11.7,20.8,21.3C125.4,129.9,117.6,123,108.6,119.8z"/>
<path d="M58.2,148.5c0.1,0,0.1,0,0.2,0c1.2-8.1,5.1-15.3,10.8-20.8C63.4,132.9,59.3,139.9,58.2,148.5z"/>
<path d="M59.2,163.4L59.2,163.4L59.2,163.4z"/>
<path d="M58,153.2c0-1.6,0.2-3.1,0.5-4.7c-0.1,0-0.1,0-0.2,0C58,150,58,151.6,58,153.2z"/>
<path d="M131.8,153.8c0,0.1,0,0.2,0,0.4C131.8,154,131.8,153.9,131.8,153.8z"/>
<path d="M130.8,162.5c0.1,0,0.1,0,0.2,0c0.5-2.3,0.8-4.8,0.8-7.4C131.7,157.6,131.4,160.1,130.8,162.5z"/>
<path d="M113.7,142.8c3.9,6.9,3.9,15.8,0.2,22.7c2-3.3,3.1-7.1,3.1-11.3C117,150.1,115.7,146.2,113.7,142.8z"/>
<path d="M90.5,175.9C90.5,175.9,90.4,175.9,90.5,175.9C90.4,175.9,90.5,175.9,90.5,175.9z"/>
<path d="M97.6,176.2c-0.4,0-0.8,0.1-1.2,0.1C96.9,176.3,97.3,176.2,97.6,176.2z"/>
<path d="M93.2,176.3c-0.3,0-0.6-0.1-1-0.1C92.6,176.2,92.9,176.3,93.2,176.3z"/>
<path d="M76,142.9c-2,3.3-3.2,7.2-3.2,11.4s1.2,8.1,3.2,11.4C72.2,158.8,72.2,149.8,76,142.9z"/>
<path d="M92.3,132.4c0.3,0,0.6-0.1,1-0.1C92.9,132.3,92.6,132.3,92.3,132.4z"/>
<path d="M90.4,132.7C90.4,132.7,90.5,132.7,90.4,132.7C90.5,132.7,90.4,132.7,90.4,132.7z"/>
<path d="M96.5,132.3c0.4,0,0.7,0.1,1.1,0.1C97.2,132.4,96.8,132.3,96.5,132.3z"/>
<path d="M99.4,175.9c-0.1,0-0.2,0-0.2,0C99.2,175.9,99.3,175.9,99.4,175.9z"/>
<path d="M99.2,132.7L99.2,132.7C99.3,132.7,99.2,132.7,99.2,132.7z"/>
<path d="M94.9,132.2L94.9,132.2L94.9,132.2z"/>
<path class="st0" d="M57.9,153.2c0,0.3,0,0.6,0,0.9c0,2.1,0.2,4.2,0.6,6.2C58.1,157.8,57.9,155.5,57.9,153.2z"/>
<path class="st0" d="M99.3,132.6L99.3,132.6c-0.6-0.1-1.1-0.2-1.7-0.3c-0.4,0-0.7-0.1-1.1-0.1c-0.5-0.1-1.1-0.1-1.6-0.1
	c-0.6,0-1.2,0.1-1.7,0.1c-0.4,0-0.7,0.1-1,0.1c-0.6,0.1-1.2,0.2-1.8,0.3h-0.1c-6.8,1.3-11.6,5.2-14.4,10.2c-2,3.3-3.2,7.2-3.2,11.4
	c0,4.2,1.2,8.1,3.2,11.4c2.8,5,7.6,8.9,14.4,10.2h0.1c0.6,0.1,1.2,0.2,1.8,0.3c0.4,0.1,0.7,0.1,1,0.1c0.6,0.1,1.1,0.1,1.7,0.1
	c0.5,0,1.1-0.1,1.6-0.1c0.4,0,0.8-0.1,1.2-0.1c0.5,0,1-0.1,1.5-0.2c0,0,0.1,0,0.2,0c6.9-1.3,11.7-5.3,14.5-10.4
	c1.9-3.3,3.1-7.2,3.1-11.3c0-4.1-1.2-8.1-3.3-11.4C110.9,137.8,106.1,133.9,99.3,132.6z"/>
<path class="st0" d="M57.9,154.1c0,2.1,0.2,4.2,0.6,6.2c-0.4-2.5-0.6-4.8-0.6-7.1C57.9,153.5,57.9,153.8,57.9,154.1z"/>
<path class="st0" d="M99.3,132.6L99.3,132.6c-0.6-0.1-1.1-0.2-1.7-0.3c-0.4,0-0.7-0.1-1.1-0.1c-0.5-0.1-1.1-0.1-1.6-0.1
	c-0.6,0-1.2,0.1-1.7,0.1c-0.4,0-0.7,0.1-1,0.1c-0.6,0.1-1.2,0.2-1.8,0.3h-0.1c-6.8,1.3-11.6,5.2-14.4,10.2c-2,3.3-3.2,7.2-3.2,11.4
	c0,4.2,1.2,8.1,3.2,11.4c2.8,5,7.6,8.9,14.4,10.2h0.1c0.6,0.1,1.2,0.2,1.8,0.3c0.4,0.1,0.7,0.1,1,0.1c0.6,0.1,1.1,0.1,1.7,0.1
	c0.5,0,1.1-0.1,1.6-0.1c0.4,0,0.8-0.1,1.2-0.1c0.5,0,1-0.1,1.5-0.2c0,0,0.1,0,0.2,0c6.9-1.3,11.7-5.3,14.5-10.4
	c1.9-3.3,3.1-7.2,3.1-11.3c0-4.1-1.2-8.1-3.3-11.4C110.9,137.8,106.1,133.9,99.3,132.6z"/>
<path d="M131.8,155.1c0-0.3,0-0.6,0-0.9c0-0.1,0-0.2,0-0.4c0-2-0.2-4.1-0.6-6.3c-0.5-2.3-1.1-4.4-1.8-6.4
	c-3.7-9.7-11.3-17.4-20.8-21.3c-13.2-4.7-29-1.5-39.4,7.9c-5.6,5.5-9.5,12.7-10.8,20.8c-0.2,1.5-0.4,3.1-0.5,4.7
	c0-1.6,0.1-3.2,0.3-4.7c-10.4,0.1-21.3,0.2-32.3,0.4v0c-2,0-4,0-6.1,0.1v14.9c2,0,4,0,6.1-0.1c11.4-0.1,22.5-0.3,33.2-0.4
	c10.9,39.7,64.6,32.9,71.8-0.9c-0.1,0-0.1,0-0.2,0C131.4,160.1,131.7,157.6,131.8,155.1z M57.9,154.1c0-0.3,0-0.6,0-0.9
	c0,2.3,0.2,4.6,0.6,7.1C58.1,158.3,57.9,156.2,57.9,154.1z M113.9,165.5c-2.8,5.1-7.6,9.1-14.5,10.4c-0.1,0-0.2,0-0.2,0
	c-0.5,0.1-1,0.2-1.5,0.2c-0.4,0-0.8,0.1-1.2,0.1c-0.5,0-1.1,0.1-1.6,0.1c-0.6,0-1.1,0-1.7-0.1c-0.3,0-0.6,0-1-0.1
	c-0.6-0.1-1.2-0.2-1.8-0.3h-0.1c-6.8-1.3-11.6-5.2-14.4-10.2c-2-3.3-3.2-7.2-3.2-11.4c0-4.2,1.2-8.1,3.2-11.4
	c2.8-5,7.6-8.9,14.4-10.2h0.1c0.6-0.1,1.2-0.2,1.8-0.3c0.3,0,0.6-0.1,1-0.1c0.5,0,1.1-0.1,1.7-0.1c0.5,0,1.1,0,1.6,0.1
	c0.4,0,0.7,0.1,1.1,0.1c0.6,0.1,1.1,0.2,1.6,0.3h0.1c6.8,1.3,11.6,5.2,14.4,10.2c2.1,3.3,3.3,7.3,3.3,11.4
	C117,158.3,115.8,162.2,113.9,165.5z"/>
<path d="M185.2,26.8c-14-18.5-24.6-18-28.4-16.9C143.5,13.5,113,35.7,103.4,43c-1.9,1.1-3.4,2.6-4.4,4.2c-1.1,2.1-1.2,4.6-0.4,6.7
	c-1.1-2.4-0.8-4.8,0.4-6.8c0.9-1.7,2.3-3.3,4.4-4.2c-22.3-5.4-48.6-10.2-77.5-10.8v0.1c-2,0-4-0.1-6.1-0.1v15.2c2,0,4,0,6.1,0.1
	v-0.1c42.6,0.9,79.6,11.3,105.5,18.6c9,2.7,16.4,4.7,22.8,6.1c0,6.1,0.5,17.3,5.9,37.4c0.5,3-0.4,7.9-2.4,13.3
	c-1.6,4.8-4.2,10.2-7.9,14.6c-1.8,2.1-3.7,3.9-5.8,5.4c-3.7,2.9-8,4.8-12.6,4.8c0.4,2,0.6,4.1,0.6,6.3c0,0.1,0,0.2,0,0.4
	c0,0.3,0,0.6,0,0.9c0,2.6-0.3,5.1-0.8,7.4c27.2,0.5,48-37.6,43.4-56.8c-5.6-21.2-5.4-30.9-5.2-35.6c0.2-2.9,0.5-10.8-7.9-11.9
	c-9.1-1.4-27.1-7-39.4-10.3c14.2-10.2,31.1-21.3,38.3-23.4c6.5,0.4,14.3,19.8,23.4,12.8C187,34.7,187.7,30.2,185.2,26.8z"/>
</svg>
