<?xml version="1.0" encoding="utf-8"?>
<!-- Generator: Adobe Illustrator 26.0.2, SVG Export Plug-In . SVG Version: 6.00 Build 0)  -->
<svg version="1.1" id="Lager_1" xmlns="http://www.w3.org/2000/svg" xmlns:xlink="http://www.w3.org/1999/xlink" x="0px" y="0px"
	 viewBox="0 0 200 200" style="enable-background:new 0 0 200 200;" xml:space="preserve">
<style type="text/css">
	.st0{stroke:#000000;stroke-width:4.5394;stroke-miterlimit:3.125;}
</style>
<g id="SVGRepo_iconCarrier">
	<path class="st0" d="M104.6,89.7V51.5l18.3-18.4c2.2-2.2,2.2-5.8,0-8c-2.2-2.2-5.8-2.2-8,0l-10.3,10.3V14.8c0-3-2.5-5.6-5.6-5.6
		c-3.1,0-5.6,2.5-5.6,5.6v20.9L83,25.4c-2.2-2.2-5.8-2.2-8,0c-2.2,2.2-2.2,5.8,0,8l18.3,18.4v38L60.2,70.6l-6.8-25
		c-0.8-3-3.9-4.8-6.9-4c-3,0.8-4.8,3.9-4,6.9l3.8,14.1L28.4,52.2c-2.6-1.5-6.1-0.6-7.7,2.1c-1.6,2.7-0.6,6.1,2,7.7l18.1,10.5
		l-14.1,3.8c-3,0.8-4.8,3.9-4,6.9c0.8,3,3.9,4.8,6.9,4l25.1-6.7l32.9,19l-33.1,19.1l-25.1-6.7c-3-0.8-6.1,1-6.9,4
		c-0.8,3,1,6.1,4,6.9l14.1,3.8L22.8,137c-2.6,1.5-3.6,5-2,7.7c1.6,2.7,5,3.6,7.7,2.1l18.1-10.5l-3.8,14.1c-0.8,3,1,6.1,4,6.9
		c3,0.8,6.1-1,6.9-4l6.8-25l32.9-19v38.4l-18.3,18.7c-2.2,2.2-2.2,5.8,0,8c2.2,2.2,5.8,2.2,8,0l10.3-10.3v20.1c0,3,2.5,5.6,5.6,5.6
		c3.1,0,5.6-2.5,5.6-5.6v-20.4l10.3,10.3c2.2,2.2,5.8,2.2,8,0c2.2-2.2,2.2-5.8,0-8l-18.3-18.7v-38.2l33.3,19.2l7.1,25.2
		c0.8,3,3.9,4.8,6.9,4c3-0.8,4.8-3.9,4-6.9l-3.8-14.1l17.4,10.1c2.6,1.5,6.1,0.6,7.7-2.1c1.6-2.7,0.6-6.1-2-7.7l-17.6-10.2l14.1-3.8
		c3-0.8,4.8-3.9,4-6.9c-0.8-3-3.9-4.8-6.9-4l-25.4,6.5l-33.1-19.1l33.3-19.2l25.4,6.5c3,0.8,6.1-1,6.9-4c0.8-3-1-6.1-4-6.9
		l-14.1-3.8L175.2,62c2.6-1.5,3.6-5,2-7.7c-1.6-2.7-5-3.6-7.7-2.1L152,62.4l3.8-14.1c0.8-3-1-6.1-4-6.9c-3-0.8-6.1,1-6.9,4
		l-7.1,25.2L104.6,89.7z"/>
</g>
</svg>
