<?xml version="1.0" encoding="utf-8"?>
<!-- Generator: Adobe Illustrator 26.0.2, SVG Export Plug-In . SVG Version: 6.00 Build 0)  -->
<svg version="1.1" id="Lager_1" xmlns="http://www.w3.org/2000/svg" xmlns:xlink="http://www.w3.org/1999/xlink" x="0px" y="0px"
	 viewBox="0 0 200 200" style="enable-background:new 0 0 200 200;" xml:space="preserve">
<g>
	<path d="M39,43.6c-4.1-4.1-10.3-3.7-14,1.2c-10.3,17.3-8.6,40.8,6.2,56c15.2,15.2,37.9,17.3,56,6.2c4.9-3.3,5.4-9.9,1.2-14
		C76.9,81.5,51.4,55.9,39,43.6z"/>
	<path d="M161,156c4.1,4.1,10.3,3.7,14-1.2c10.3-17.3,8.6-40.8-6.2-56c-15.2-15.2-37.9-17.3-56-6.2c-4.9,3.3-5.8,9.5-1.2,14
		C123.1,118.1,148.6,143.7,161,156z"/>
	<path d="M156.8,38.6c4.1-4.1,3.7-10.3-1.2-14c-17.3-10.3-40.8-8.6-56,6.2c-15.2,15.2-17.3,37.9-6.2,56c3.3,4.9,9.9,5.4,14,1.2
		C118.1,77.3,144.5,51,156.8,38.6z"/>
	<path d="M44,161.4c-4.1,4.1-3.7,10.3,1.2,14c17.3,10.3,40.8,8.6,56-6.2c15.2-15.2,17.3-37.9,6.2-56c-3.3-4.9-9.9-5.4-14-1.2
		C82.7,122.7,56.3,149,44,161.4z"/>
</g>
</svg>
