<?xml version="1.0" encoding="utf-8"?>
<!-- Generator: Adobe Illustrator 26.0.2, SVG Export Plug-In . SVG Version: 6.00 Build 0)  -->
<svg version="1.1" id="Lager_1" xmlns="http://www.w3.org/2000/svg" xmlns:xlink="http://www.w3.org/1999/xlink" x="0px" y="0px"
	 viewBox="0 0 200 200" style="enable-background:new 0 0 200 200;" xml:space="preserve">
<path d="M10.9,104.3h39.7c2.7,11.9,14.6,19.2,26.4,16.5c8.2-1.9,14.6-8.3,16.5-16.5h93.6c2.7,0,4.9-2.2,4.9-4.9s-2.2-4.9-4.9-4.9
	H93.5C90.8,82.7,79,75.3,67.1,78c-8.2,1.9-14.6,8.3-16.5,16.5H10.9c-2.7,0-4.9,2.2-4.9,4.9S8.2,104.3,10.9,104.3z M72.1,87.2
	c6.8,0,12.2,5.5,12.2,12.2s-5.5,12.2-12.2,12.2s-12.2-5.5-12.2-12.2S65.3,87.2,72.1,87.2z"/>
<path d="M6,26c0,2.7,2.2,4.9,4.9,4.9h86.2c2.7,11.9,14.6,19.2,26.4,16.5c8.2-1.9,14.6-8.3,16.5-16.5h47.1c2.7,0,4.9-2.2,4.9-4.9
	s-2.2-4.9-4.9-4.9H140c-2.7-11.9-14.6-19.2-26.4-16.5c-8.2,1.9-14.6,8.3-16.5,16.5H10.9C8.2,21.1,6,23.3,6,26z M118.6,13.8
	c6.8,0,12.2,5.5,12.2,12.2s-5.5,12.2-12.2,12.2s-12.2-5.5-12.2-12.2S111.8,13.8,118.6,13.8z"/>
<path d="M118.6,194.9c10.3,0,19.2-7.1,21.5-17.1h47.1c2.7,0,4.9-2.2,4.9-4.9c0-2.7-2.2-4.9-4.9-4.9H140
	c-2.7-11.9-14.6-19.2-26.4-16.5c-8.2,1.9-14.6,8.3-16.5,16.5H10.9c-2.7,0-4.9,2.2-4.9,4.9c0,2.7,2.2,4.9,4.9,4.9h86.2
	C99.4,187.8,108.3,194.9,118.6,194.9z M118.6,160.6c6.8,0,12.2,5.5,12.2,12.2c0,6.8-5.5,12.2-12.2,12.2s-12.2-5.5-12.2-12.2
	C106.3,166.1,111.8,160.6,118.6,160.6z"/>
</svg>
