<?xml version="1.0" encoding="utf-8"?>
<!-- Generator: Adobe Illustrator 26.0.2, SVG Export Plug-In . SVG Version: 6.00 Build 0)  -->
<svg version="1.1" id="Lager_1" xmlns="http://www.w3.org/2000/svg" xmlns:xlink="http://www.w3.org/1999/xlink" x="0px" y="0px"
	 viewBox="0 0 200 200" style="enable-background:new 0 0 200 200;" xml:space="preserve">
<g transform="translate(0,-1004.3622)">
	<path d="M85.4,1142.1c0,2.2,1.8,4.1,4.1,4.1h24.3c2.2,0,4.1-1.8,4.1-4.1l-0.1-41c0-2.2-1.8-4.1-4.1-4.1h-5.4v-1.4
		c0-1.5-1.2-2.7-2.7-2.7h-8.1c-1.5,0-2.7,1.2-2.7,2.7v1.4h-5.4c-2.2,0-4.1,1.8-4.1,4.1L85.4,1142.1z M89.4,1142.1l-0.1-41h8.1h8.1
		h8.1l0.1,41H89.4z M92.1,1138.1c0,0.7,0.6,1.4,1.4,1.4h16.2c0.7,0,1.4-0.6,1.4-1.4v-5.4c0-0.7-0.6-1.4-1.4-1.4H93.5
		c-0.7,0-1.4,0.6-1.4,1.4V1138.1z M92.1,1127.3c0,0.7,0.6,1.4,1.4,1.4h16.2c0.7,0,1.4-0.6,1.4-1.4v-5.4c0-0.7-0.6-1.4-1.4-1.4H93.5
		c-0.7,0-1.4,0.6-1.4,1.4V1127.3z M92.1,1116.4c0,0.7,0.6,1.4,1.4,1.4h16.2c0.7,0,1.4-0.6,1.4-1.4v-5.4c0-0.7-0.6-1.4-1.4-1.4H93.5
		c-0.7,0-1.4,0.6-1.4,1.4V1116.4z"/>
</g>
<path d="M100,1.6C45.8,1.6,1.6,45.8,1.6,100s44.1,98.4,98.4,98.4s98.4-44.1,98.4-98.4S154.2,1.6,100,1.6z M100,182
	c-45.2,0-82-36.8-82-82s36.8-82,82-82s82,36.8,82,82S145.2,182,100,182z"/>
<g>
	<path d="M96.1,31.6c1.8-0.1,3.6-0.2,5.3-0.2s3.5,0.1,5.3,0.2v22.8c-1.7-0.2-3.6-0.3-5.3-0.3s-3.5,0.1-5.3,0.3V31.6z"/>
	<path d="M55.5,90.1l-20.2-8.8c1.1-3.5,2.5-6.9,4.1-10.2l20.2,8.8C57.9,83.1,56.5,86.5,55.5,90.1z"/>
	<path d="M64.1,72.9L48.6,56.7c2.3-2.8,4.8-5.4,7.5-7.8l15.5,16.2C68.9,67.4,66.3,70,64.1,72.9z"/>
	<path d="M69.6,39.3c3.1-1.7,6.4-3.1,9.8-4.3l8.5,21.1c-3.4,1.1-6.7,2.5-9.8,4.3L69.6,39.3z"/>
	<path d="M114.7,56.1l8.4-21.1c3.3,1.2,6.6,2.6,9.8,4.3l-8.4,21.1C121.4,58.6,118.1,57.1,114.7,56.1z"/>
	<path d="M138.7,72.8c-2.2-2.8-4.7-5.5-7.5-7.8l15.5-16.1c2.7,2.4,5.2,5,7.5,7.8C154.2,56.7,138.7,72.9,138.7,72.8z"/>
	<path d="M167.2,80.3l-20.1,9.1c-1-3.6-2.4-7-4.2-10.2l20.1-9.1C164.6,73.4,166,76.8,167.2,80.3z"/>
</g>
</svg>
