<?xml version="1.0" encoding="utf-8"?>
<!-- Generator: Adobe Illustrator 26.0.2, SVG Export Plug-In . SVG Version: 6.00 Build 0)  -->
<svg version="1.1" id="Lager_1" xmlns="http://www.w3.org/2000/svg" xmlns:xlink="http://www.w3.org/1999/xlink" x="0px" y="0px"
	 viewBox="0 0 200 200" style="enable-background:new 0 0 200 200;" xml:space="preserve">
<g transform="translate(0,-1004.3622)">
	<path d="M42.5,1187.6c0,8.2,6.6,14.9,14.9,14.9h89.3c8.2,0,14.9-6.6,14.9-14.9l-0.5-150.4c0-8.2-6.6-14.9-14.9-14.9h-19.8v-5
		c0-5.5-4.4-9.9-9.9-9.9H86.7c-5.5,0-9.9,4.4-9.9,9.9v5H56.9c-8.2,0-14.9,6.6-14.9,14.9L42.5,1187.6z M57.4,1187.6l-0.5-150.4h29.8
		h29.8h29.8l0.5,150.4H57.4z M67.3,1172.7c0,2.7,2.2,5,5,5h59.5c2.7,0,5-2.2,5-5v-19.8c0-2.7-2.2-5-5-5H72.3c-2.7,0-5,2.2-5,5
		V1172.7z M67.3,1133c0,2.7,2.2,5,5,5h59.5c2.7,0,5-2.2,5-5v-19.8c0-2.7-2.2-5-5-5H72.3c-2.7,0-5,2.2-5,5V1133z M67.3,1093.3
		c0,2.7,2.2,5,5,5h59.5c2.7,0,5-2.2,5-5v-19.8c0-2.7-2.2-5-5-5H72.3c-2.7,0-5,2.2-5,5V1093.3z"/>
</g>
</svg>
