<?xml version="1.0" encoding="utf-8"?>
<!-- Generator: Adobe Illustrator 26.0.2, SVG Export Plug-In . SVG Version: 6.00 Build 0)  -->
<svg version="1.1" id="Lager_1" xmlns="http://www.w3.org/2000/svg" xmlns:xlink="http://www.w3.org/1999/xlink" x="0px" y="0px"
	 viewBox="0 0 200 200" style="enable-background:new 0 0 200 200;" xml:space="preserve">
<g transform="translate(0,-1004.3622)">
	<path d="M51.6,1171.6c0,6.6,5.4,12.3,12.3,12.3h72.8c6.6,0,12.3-5.4,12.3-12.3l-0.3-122.9c0-6.6-5.4-12.3-12.3-12.3h-16.2v-4.2
		c0-4.5-3.6-8.1-8.1-8.1H87.8c-4.5,0-8.1,3.6-8.1,8.1v4.2H63.6c-6.6,0-12.3,5.4-12.3,12.3L51.6,1171.6z M63.9,1171.6l-0.3-122.9
		h24.3h24.3h24.3l0.3,122.9H63.9z M72,1159.3c0,2.1,1.8,4.2,4.2,4.2h48.6c2.1,0,4.2-1.8,4.2-4.2v-16.2c0-2.1-1.8-4.2-4.2-4.2H75.9
		c-2.1,0-4.2,1.8-4.2,4.2v16.2H72z M72,1127c0,2.1,1.8,4.2,4.2,4.2h48.6c2.1,0,4.2-1.8,4.2-4.2v-16.2c0-2.1-1.8-4.2-4.2-4.2H75.9
		c-2.1,0-4.2,1.8-4.2,4.2v16.2H72z M72,1094.6c0,2.1,1.8,4.2,4.2,4.2h48.6c2.1,0,4.2-1.8,4.2-4.2v-16.2c0-2.1-1.8-4.2-4.2-4.2H75.9
		c-2.1,0-4.2,1.8-4.2,4.2v16.2H72z"/>
</g>
</svg>
