<?xml version="1.0" encoding="utf-8"?>
<!-- Generator: Adobe Illustrator 26.0.2, SVG Export Plug-In . SVG Version: 6.00 Build 0)  -->
<svg version="1.1" id="Lager_1" xmlns="http://www.w3.org/2000/svg" xmlns:xlink="http://www.w3.org/1999/xlink" x="0px" y="0px"
	 viewBox="0 0 200 200" style="enable-background:new 0 0 200 200;" xml:space="preserve">
<style type="text/css">
	.st0{fill:none;stroke:#000000;stroke-width:6.6229;stroke-linecap:round;stroke-linejoin:round;stroke-miterlimit:10;}
	.st1{fill:none;stroke:#811900;stroke-width:6.6229;stroke-linecap:round;stroke-linejoin:round;stroke-miterlimit:10;}
	.st2{fill:#FFFFFF;}
</style>
<g>
	<g>
		<path class="st0" d="M77,126.9"/>
	</g>
	<g>
		<path class="st1" d="M163.8,126.3"/>
	</g>
	<g>
		<path class="st1" d="M163.8,126.3"/>
	</g>
	<g>
		<path class="st1" d="M181.7,106.6"/>
	</g>
	<g>
		<path class="st1" d="M163.8,126.3"/>
	</g>
	<g>
		<path class="st1" d="M163.8,126.3"/>
	</g>
	<g>
		<path class="st1" d="M171.7,119.4"/>
	</g>
	<g>
		<path d="M25.4,129.4c-6.5,0-10-0.9-11.8-3c-1-1.2-1.4-2.6-1.1-4.2c1.1-5.8,0-10.2-0.8-13.5c-0.8-3.1-1.8-7.4,2.2-9.4
			c17.6-8.7,25.9-9.4,31.4-9.8c3.3-0.3,5.4-0.5,8.3-2.3l0,0c44.9-27.9,88.9-15.5,112.6-8.8c4.9,1.4,8.8,2.5,11.5,2.9
			c3.7,0.5,3.6,4,3.5,5.3c-0.1,2.1-0.2,6.4,2.3,15.8c0.9,3.2-0.7,11.5-5.2,17.4c-3.8,5.1-9.2,7.8-15.5,7.9
			c-32.1,0.3-118.5,1.4-135.9,1.7C26.3,129.4,25.9,129.4,25.4,129.4z M19.2,122.3c1,0.3,3.1,0.6,7.5,0.5c17.9-0.3,103-1.4,136-1.7
			c4,0,7.3-1.6,9.8-4.6c3.8-4.5,4.8-11,4.6-12.4c-2.4-8.9-2.6-13.9-2.6-16.6c-2.8-0.6-6.1-1.5-10.1-2.7
			c-22.7-6.4-64.8-18.3-107.3,8.1c-4.3,2.7-7.5,2.9-11.2,3.3c-5.2,0.4-12.3,1.1-28.2,8.8c0.1,0.6,0.3,1.5,0.5,2.3
			C19,110.6,20.3,115.7,19.2,122.3z"/>
	</g>
	<g>
		<path class="st1" d="M179.1,97"/>
	</g>
	<g>
		<path d="M55.4,93.4c-0.8,0-1.6-0.3-2.2-0.8c-0.1-0.1-12.8-11.1-23.3-12.8c-3.8-0.6-11.8-0.4-12.9-0.3c-1.5,0.1-2.9-0.8-3.4-2.2
			c-0.6-1.7,0.3-3.6,2.1-4.2c1.3-0.4,11.6-0.4,15.3,0.2c12.4,2,26,13.8,26.6,14.3c1.4,1.2,1.5,3.3,0.3,4.7
			C57.2,93,56.3,93.4,55.4,93.4z"/>
	</g>
	<g>
		<path d="M152.8,81.4c-1,0-2-0.4-2.6-1.3c-1.1-1.5-0.8-3.5,0.6-4.6c1.8-1.4,18.2-13.8,24.9-15.6c1.7-0.5,6.4-0.7,12.6,7.5
			c1.1,1.5,0.8,3.5-0.6,4.6c-1.5,1.1-3.5,0.8-4.6-0.6c-1.9-2.5-4.7-4.9-5.8-5.1c-4.2,1.2-16,9.5-22.5,14.4
			C154.2,81.1,153.5,81.4,152.8,81.4z"/>
	</g>
	<g>
		<circle class="st2" cx="46.9" cy="123.9" r="13.1"/>
		<path d="M46.9,140.3c-9,0-16.4-7.4-16.4-16.4s7.4-16.4,16.4-16.4s16.4,7.4,16.4,16.4S55.9,140.3,46.9,140.3z M46.9,114.2
			c-5.4,0-9.8,4.4-9.8,9.8c0,5.4,4.4,9.8,9.8,9.8s9.8-4.4,9.8-9.8C56.7,118.6,52.3,114.2,46.9,114.2z"/>
	</g>
	<g>
		<circle class="st2" cx="148.2" cy="123.9" r="13.1"/>
		<path d="M148.2,140.3c-9,0-16.4-7.4-16.4-16.4s7.4-16.4,16.4-16.4s16.4,7.4,16.4,16.4S157.2,140.3,148.2,140.3z M148.2,114.2
			c-5.4,0-9.8,4.4-9.8,9.8c0,5.4,4.4,9.8,9.8,9.8s9.8-4.4,9.8-9.8C158,118.6,153.5,114.2,148.2,114.2z"/>
	</g>
</g>
</svg>
