<?xml version="1.0" encoding="utf-8"?>
<!-- Generator: Adobe Illustrator 26.0.2, SVG Export Plug-In . SVG Version: 6.00 Build 0)  -->
<svg version="1.1" id="Lager_1" xmlns="http://www.w3.org/2000/svg" xmlns:xlink="http://www.w3.org/1999/xlink" x="0px" y="0px"
	 viewBox="0 0 200 200" style="enable-background:new 0 0 200 200;" xml:space="preserve">
<path d="M100,1.6C45.8,1.6,1.6,45.8,1.6,100s44.1,98.4,98.4,98.4s98.4-44.1,98.4-98.4S154.2,1.6,100,1.6z M100,182
	c-45.2,0-82-36.8-82-82s36.8-82,82-82s82,36.8,82,82S145.2,182,100,182z"/>
<g>
	<polygon points="126.5,91.8 103.3,91.8 114.2,47.7 76.5,106.2 99.7,106.2 88.8,150.3 	"/>
	<path d="M88.8,152.3c-0.3,0-0.5-0.1-0.8-0.2c-0.9-0.4-1.3-1.3-1.1-2.2l10.3-41.8H76.5c-0.7,0-1.4-0.4-1.7-1c-0.3-0.6-0.3-1.4,0.1-2
		l37.6-58.5c0.5-0.8,1.5-1.1,2.4-0.7c0.9,0.4,1.3,1.3,1.1,2.2l-10.3,41.8h20.7c0.7,0,1.4,0.4,1.7,1c0.3,0.6,0.3,1.4-0.1,2
		l-37.6,58.5C90.1,151.9,89.5,152.3,88.8,152.3z M80.1,104.3h19.6c0.6,0,1.2,0.3,1.5,0.7c0.4,0.5,0.5,1.1,0.4,1.6l-8.1,32.9
		L123,93.7h-19.6c-0.6,0-1.2-0.3-1.5-0.7c-0.4-0.5-0.5-1.1-0.4-1.6l8.1-32.9L80.1,104.3z"/>
</g>
</svg>
