<?xml version="1.0" encoding="utf-8"?>
<!-- Generator: Adobe Illustrator 26.0.2, SVG Export Plug-In . SVG Version: 6.00 Build 0)  -->
<svg version="1.1" id="Lager_1" xmlns="http://www.w3.org/2000/svg" xmlns:xlink="http://www.w3.org/1999/xlink" x="0px" y="0px"
	 viewBox="0 0 200 200" style="enable-background:new 0 0 200 200;" xml:space="preserve">
<style type="text/css">
	.st0{stroke:#000000;stroke-width:3.4612;stroke-linecap:round;stroke-linejoin:round;stroke-miterlimit:10;}
</style>
<path d="M100,1.6C45.8,1.6,1.6,45.8,1.6,100s44.1,98.4,98.4,98.4s98.4-44.1,98.4-98.4S154.2,1.6,100,1.6z M100,182
	c-45.2,0-82-36.8-82-82s36.8-82,82-82s82,36.8,82,82S145.2,182,100,182z"/>
<g>
	<path d="M94.7,31.6c1.8-0.1,3.6-0.2,5.3-0.2s3.5,0.1,5.3,0.2v22.8c-1.7-0.2-3.6-0.3-5.3-0.3s-3.5,0.1-5.3,0.3V31.6z"/>
	<path d="M54.1,90.1l-20.2-8.8c1.1-3.5,2.5-6.9,4.1-10.2l20.2,8.8C56.5,83.1,55.1,86.5,54.1,90.1z"/>
	<path d="M62.7,72.9L47.2,56.7c2.3-2.8,4.8-5.4,7.5-7.8l15.5,16.2C67.5,67.4,64.9,70,62.7,72.9z"/>
	<path d="M68.2,39.3c3.1-1.7,6.4-3.1,9.8-4.3l8.5,21.1c-3.4,1.1-6.7,2.5-9.8,4.3L68.2,39.3z"/>
	<path d="M113.3,56.1l8.4-21.1c3.3,1.2,6.6,2.6,9.8,4.3l-8.4,21.1C120,58.6,116.7,57.1,113.3,56.1z"/>
	<path d="M137.3,72.8c-2.2-2.8-4.7-5.5-7.5-7.8l15.5-16.1c2.7,2.4,5.2,5,7.5,7.8C152.8,56.7,137.3,72.9,137.3,72.8z"/>
	<path d="M165.8,80.3l-20.1,9.1c-1-3.6-2.4-7-4.2-10.2l20.1-9.1C163.2,73.4,164.6,76.8,165.8,80.3z"/>
</g>
<polygon class="st0" points="118.9,111.7 98.1,111.7 107.9,72 74,124.6 94.8,124.6 85.1,164.3 "/>
</svg>
