<?xml version="1.0" encoding="utf-8"?>
<!-- Generator: Adobe Illustrator 26.0.2, SVG Export Plug-In . SVG Version: 6.00 Build 0)  -->
<svg version="1.1" id="Lager_1" xmlns="http://www.w3.org/2000/svg" xmlns:xlink="http://www.w3.org/1999/xlink" x="0px" y="0px"
	 viewBox="0 0 200 200" style="enable-background:new 0 0 200 200;" xml:space="preserve">
<style type="text/css">
	.st0{stroke:#000000;stroke-width:3;stroke-linecap:round;stroke-linejoin:round;stroke-miterlimit:6.6592;}
	.st1{stroke:#000000;stroke-width:2;stroke-linecap:round;stroke-linejoin:round;stroke-miterlimit:6.6592;}
</style>
<path class="st0" d="M82,120.2c0-17.5-14.2-31.7-31.7-31.7s-31.7,14.2-31.7,31.7c0,5.1,1.2,10,3.4,14.3L50.4,193l28.4-58.5
	C80.8,130.2,82,125.3,82,120.2z M50.2,137.7c-9.7,0-17.6-7.9-17.6-17.6s7.9-17.6,17.6-17.6s17.6,7.9,17.6,17.6
	S59.9,137.7,50.2,137.7z"/>
<path class="st1" d="M157.8,5.3c-9.7,0-17.6,7.9-17.6,17.6c0,2.8,0.7,5.5,1.9,7.9l15.7,32.4l15.7-32.4c1.2-2.4,1.9-5.1,1.9-7.9
	C175.4,13.2,167.5,5.3,157.8,5.3z M157.8,32.7c-5.4,0-9.7-4.4-9.7-9.7c0-5.4,4.4-9.7,9.7-9.7c5.4,0,9.7,4.4,9.7,9.7
	C167.6,28.3,163.2,32.7,157.8,32.7z"/>
<path class="st0" d="M134.9,118.7c-0.6-3.3-1.5-6.5-2.5-9.7c-1.4-4.2-3.1-8.4-4.3-12.7c-2.4-8,1.7-14.7,2.5-15.9
	c1.4-2.1,2.9-4.1,4.6-5.9c3.2-3.5,6.8-6.7,10.5-9.6c-0.5-0.8-0.9-1.6-1.3-2.4c-5.3,2.3-32.8,12.9-32.2,36.3
	c0.1,4.7,1.8,9.2,2.8,13.7c0.5,2.2,0.9,4.4,1.2,6.6c0.1,1,0.2,2,0.3,3l0,0c0,0,0.1,3.2-0.1,4.6c-0.4,4.3-1,8.7-2.6,12.6
	c-1.5,3.7-3.9,6.9-6.7,9.4c-6.5,5.8-15.2,8.1-23.4,9c-0.4,0-0.8,0.1-1.2,0.1l-14.6,33.3c7.2-0.5,14.4-1.6,21.4-3.5
	c8.3-2.2,16.3-5.6,23.5-10.7c7.2-5,13.4-11.8,17.5-20.1c4.3-8.6,6-18.5,5.7-28.3C135.8,125.4,135.5,122,134.9,118.7z"/>
</svg>
