<?xml version="1.0" encoding="utf-8"?>
<!-- Generator: Adobe Illustrator 26.0.2, SVG Export Plug-In . SVG Version: 6.00 Build 0)  -->
<svg version="1.1" id="Lager_1" xmlns="http://www.w3.org/2000/svg" xmlns:xlink="http://www.w3.org/1999/xlink" x="0px" y="0px"
	 viewBox="0 0 200 200" style="enable-background:new 0 0 200 200;" xml:space="preserve">
<path d="M186.2,138c-20.2,0.2-40.2,0.4-58.2,0.9c-1.7-17.8-17-31.8-35-31.8c-18.5,0-33.7,14.6-35,32.7c-3.2,0-6,0-8.4,0.2
	c-9.5,0.2-14-0.4-16.1-1.1c2.4-14.2-0.4-25.1-2.1-32.2c-0.4-1.7-0.9-3.7-1.1-4.9c34.2-16.5,49.4-18.1,60.6-18.9
	c8-0.9,14.8-1.3,23.9-7.1c0.2-0.2,0.4-0.2,0.6-0.4c23.9-14.8,47.7-23.9,70.9-29v-15c-24.3,5.2-49.4,14.4-74.6,29.4
	c-9.2-7.3-31.8-23.9-52.9-27.3c-8-1.3-30.1-1.3-32.9-0.4c-3.9,1.3-5.8,5.4-4.5,9c1.1,3,4.1,4.9,7.3,4.7c2.4-0.2,19.6-0.6,27.7,0.6
	c14.4,2.4,30.5,12.7,40.4,20c-2.1,0.4-4.5,0.6-7.3,0.9C77.7,69,59.9,70.5,22.1,89.2c-8.6,4.3-6.4,13.5-4.7,20.2
	c1.7,7.1,4.1,16.5,1.7,29c-0.6,3.4,0.2,6.4,2.4,9c3.9,4.5,11.4,6.4,25.4,6.4c1.1,0,1.9,0,3.2,0c2.6,0,5.8,0,9.9-0.2
	c4.9,13.8,17.8,23.6,33.1,23.6c15.7,0,29-10.3,33.5-24.5c18.5-0.2,38.9-0.4,59.7-0.9V138z M93,163.4c-11.6,0-21.1-9.5-21.1-21.1
	c0-11.6,9.5-21.1,21.1-21.1s21.1,9.5,21.1,21.1C114,153.9,104.6,163.4,93,163.4z"/>
</svg>
