<?xml version="1.0" encoding="utf-8"?>
<!-- Generator: Adobe Illustrator 26.0.2, SVG Export Plug-In . SVG Version: 6.00 Build 0)  -->
<svg version="1.1" id="Lager_1" xmlns="http://www.w3.org/2000/svg" xmlns:xlink="http://www.w3.org/1999/xlink" x="0px" y="0px"
	 viewBox="0 0 200 200" style="enable-background:new 0 0 200 200;" xml:space="preserve">
<style type="text/css">
	.st0{fill:none;}
</style>
<rect class="st0" width="200" height="200"/>
<path d="M100,18c45.2,0,82,36.8,82,82s-36.8,82-82,82s-82-36.8-82-82S54.8,18,100,18z M100,1.6C45.8,1.6,1.6,45.8,1.6,100
	s44.1,98.4,98.4,98.4s98.4-44.1,98.4-98.4S154.2,1.6,100,1.6z M165.8,80.3c-1.2-3.5-2.6-6.9-4.2-10.2l-20.1,9.1
	c1.8,3.2,3.2,6.6,4.2,10.2L165.8,80.3z M62.7,72.9c2.2-2.9,4.8-5.5,7.5-7.8L54.7,48.9c-2.7,2.4-5.2,5-7.5,7.8
	C47.2,56.7,62.7,72.9,62.7,72.9z M76.7,60.4c3.1-1.8,6.4-3.2,9.8-4.3l-8.5-21.1c-3.4,1.2-6.7,2.6-9.8,4.3L76.7,60.4z M54.1,90.1
	c1-3.6,2.4-7,4.1-10.2L38,71.1c-1.6,3.3-3,6.7-4.1,10.2L54.1,90.1z M131.5,39.3c-3.2-1.7-6.5-3.1-9.8-4.3l-8.4,21.1
	c3.4,1,6.7,2.5,9.8,4.3L131.5,39.3z M152.8,56.7c-2.3-2.8-4.8-5.4-7.5-7.8L129.8,65c2.8,2.3,5.3,5,7.5,7.8
	C137.3,72.9,152.8,56.7,152.8,56.7z M105.3,31.6c-1.8-0.1-3.6-0.2-5.3-0.2s-3.5,0.1-5.3,0.2v22.8c1.8-0.2,3.6-0.3,5.3-0.3
	s3.6,0.1,5.3,0.3V31.6z M100,144.6c-10.6,0-19.2-8.6-19.2-19.2c0-7.2,4-13.5,9.9-16.8l9.3-43.5l9.3,43.5c5.9,3.3,9.9,9.6,9.9,16.8
	C119.2,136,110.6,144.6,100,144.6z"/>
</svg>
