<?xml version="1.0" encoding="utf-8"?>
<!-- Generator: Adobe Illustrator 26.0.2, SVG Export Plug-In . SVG Version: 6.00 Build 0)  -->
<svg version="1.1" id="Lager_1" xmlns="http://www.w3.org/2000/svg" xmlns:xlink="http://www.w3.org/1999/xlink" x="0px" y="0px"
	 viewBox="0 0 200 200" style="enable-background:new 0 0 200 200;" xml:space="preserve">
<style type="text/css">
	.st0{fill:none;stroke:#000000;stroke-width:5;stroke-linecap:round;stroke-linejoin:round;stroke-miterlimit:10;}
</style>
<path d="M100,1.6C45.8,1.6,1.6,45.8,1.6,100s44.1,98.4,98.4,98.4s98.4-44.1,98.4-98.4S154.2,1.6,100,1.6z M100,182
	c-45.2,0-82-36.8-82-82s36.8-82,82-82s82,36.8,82,82S145.2,182,100,182z"/>
<g>
	<path d="M96.1,31.6c1.8-0.1,3.6-0.2,5.3-0.2s3.5,0.1,5.3,0.2v22.8c-1.7-0.2-3.6-0.3-5.3-0.3s-3.5,0.1-5.3,0.3V31.6z"/>
	<path d="M55.5,90.1l-20.2-8.8c1.1-3.5,2.5-6.9,4.1-10.2l20.2,8.8C57.9,83.1,56.5,86.5,55.5,90.1z"/>
	<path d="M64.1,72.9L48.6,56.7c2.3-2.8,4.8-5.4,7.5-7.8l15.5,16.2C68.9,67.4,66.3,70,64.1,72.9z"/>
	<path d="M69.6,39.3c3.1-1.7,6.4-3.1,9.8-4.3l8.5,21.1c-3.4,1.1-6.7,2.5-9.8,4.3L69.6,39.3z"/>
	<path d="M114.7,56.1l8.4-21.1c3.3,1.2,6.6,2.6,9.8,4.3l-8.4,21.1C121.4,58.6,118.1,57.1,114.7,56.1z"/>
	<path d="M138.7,72.8c-2.2-2.8-4.7-5.5-7.5-7.8l15.5-16.1c2.7,2.4,5.2,5,7.5,7.8C154.2,56.7,138.7,72.9,138.7,72.8z"/>
	<path d="M167.2,80.3l-20.1,9.1c-1-3.6-2.4-7-4.2-10.2l20.1-9.1C164.6,73.4,166,76.8,167.2,80.3z"/>
</g>
<g>
	<rect x="72.1" y="116.7" class="st0" width="14.6" height="23.3"/>
	<rect x="115.8" y="116.7" class="st0" width="14.6" height="23.3"/>
	<rect x="93.9" y="116.7" class="st0" width="14.6" height="23.3"/>
	<rect x="137.6" y="116.7" class="st0" width="14.6" height="23.3"/>
	<rect x="50.3" y="116.7" class="st0" width="14.6" height="23.3"/>
</g>
</svg>
