<?xml version="1.0" encoding="utf-8"?>
<!-- Generator: Adobe Illustrator 26.0.2, SVG Export Plug-In . SVG Version: 6.00 Build 0)  -->
<svg version="1.1" id="Lager_1" xmlns="http://www.w3.org/2000/svg" xmlns:xlink="http://www.w3.org/1999/xlink" x="0px" y="0px"
	 viewBox="0 0 200 200" style="enable-background:new 0 0 200 200;" xml:space="preserve">
<style type="text/css">
	.st0{fill-rule:evenodd;clip-rule:evenodd;}
	.st1{fill-rule:evenodd;clip-rule:evenodd;fill:none;}
</style>
<path class="st0" d="M110.1,77.5V26.8c0-4.2-1.7-8.1-4.5-10.9c-2.8-2.8-6.7-4.5-10.9-4.5c-4.2,0-8.1,1.7-10.9,4.5
	c-2.8,2.8-4.5,6.7-4.5,10.9v97.4c-10.7,5.5-18,16.6-18,29.5c0,18.3,14.8,33.1,33.1,33.1s33.1-14.8,33.1-33.1
	c0-12.6-7-23.5-17.3-29.1C110.1,124.6,110.1,77.5,110.1,77.5z M101,130.3c10.2,2.9,17.6,12.3,17.6,23.4c0,13.4-10.9,24.3-24.4,24.3
	c-13.4,0-24.4-10.9-24.4-24.3c0-11.1,7.4-20.5,17.6-23.4V44.6c0-8.4,13.5-8,13.5,0V130.3z M126.3,30.4v-7.2H145c2,0,3.6,1.6,3.6,3.6
	c0,2-1.6,3.6-3.6,3.6H126.3z M126.3,50v-7.2H145c2,0,3.6,1.6,3.6,3.6c0,2-1.6,3.6-3.6,3.6H126.3z M126.3,69.6v-7.2H145
	c2,0,3.6,1.6,3.6,3.6c0,2-1.6,3.6-3.6,3.6H126.3z M126.3,89.1V82H145c2,0,3.6,1.6,3.6,3.6s-1.6,3.6-3.6,3.6
	C145,89.1,126.3,89.1,126.3,89.1z M126.3,108.7v-7.2H145c2,0,3.6,1.6,3.6,3.6c0,2-1.6,3.6-3.6,3.6H126.3z M118,118
	c11.5,7.7,19.1,20.8,19.1,35.7c0,23.7-19.2,42.8-42.8,42.8s-42.8-19.2-42.8-42.8c0-15.2,7.9-28.6,19.8-36.2V26.8
	c0-6.4,2.6-12.3,6.9-16.5c4.2-4.2,10.1-6.9,16.5-6.9s12.3,2.6,16.5,6.9c4.2,4.2,6.9,10.1,6.9,16.5L118,118L118,118z"/>
<rect x="0" class="st1" width="200" height="200"/>
</svg>
