<?xml version="1.0" encoding="utf-8"?>
<!-- Generator: Adobe Illustrator 26.0.2, SVG Export Plug-In . SVG Version: 6.00 Build 0)  -->
<svg version="1.1" id="Lager_1" xmlns="http://www.w3.org/2000/svg" xmlns:xlink="http://www.w3.org/1999/xlink" x="0px" y="0px"
	 viewBox="0 0 200 200" style="enable-background:new 0 0 200 200;" xml:space="preserve">
<style type="text/css">
	.st0{stroke:#000000;stroke-width:2.0073;stroke-miterlimit:10;}
</style>
<path class="st0" d="M137,191.8c-0.1,0-0.2,0-0.3,0c-2.7-0.2-4.9-2.2-5.3-4.9l-18-139.6l-19.7,93.2c-0.5,2.5-2.7,4.3-5.2,4.4
	c-2.6,0.1-4.9-1.5-5.6-3.9L63.1,79.9l-14,31.2c-0.9,2-2.9,3.3-5.1,3.3H14.1c-3.1,0-5.6-2.5-5.6-5.6c0-3.1,2.5-5.6,5.6-5.6h26.2
	l18.5-41.3c1-2.1,3.1-3.4,5.4-3.3c2.3,0.1,4.3,1.7,5,3.9l17.7,55l22.2-104.8c0.6-2.7,2.9-4.6,5.7-4.5c2.7,0.1,5,2.2,5.3,4.9
	l18.4,142.3l11.8-48.6c0.6-2.5,2.9-4.3,5.5-4.3h30.7c3.1,0,5.6,2.5,5.6,5.6c0,3.1-2.5,5.6-5.6,5.6h-26.3l-17.9,73.8
	C141.8,190.1,139.5,191.8,137,191.8z"/>
</svg>
