<?xml version="1.0" encoding="utf-8"?>
<!-- Generator: Adobe Illustrator 26.0.2, SVG Export Plug-In . SVG Version: 6.00 Build 0)  -->
<svg version="1.1" id="Lager_1" xmlns="http://www.w3.org/2000/svg" xmlns:xlink="http://www.w3.org/1999/xlink" x="0px" y="0px"
	 viewBox="0 0 200 200" style="enable-background:new 0 0 200 200;" xml:space="preserve">
<path d="M168.5,103.4c0-38-31-69-69-69s-69,30.9-69,69c0,20.6,9.1,39.1,23.4,51.7l-9.7,13.6c-2.3,3.2-1.5,7.5,1.6,9.8
	c1.2,0.9,2.7,1.3,4.1,1.3c2.2,0,4.4-1,5.7-2.9l9.7-13.6c10.1,5.8,21.7,9.1,34.1,9.1c12.2,0,23.7-3.2,33.7-8.8l10.1,14.5
	c1.4,1.9,3.5,3,5.8,3c1.4,0,2.8-0.4,4-1.3c3.2-2.2,3.9-6.6,1.7-9.8l-10.2-14.5C159.2,142.8,168.5,124.2,168.5,103.4z M44.6,103.4
	c0-30.3,24.6-54.9,54.9-54.9s54.9,24.6,54.9,54.9s-24.6,54.9-54.9,54.9S44.6,133.7,44.6,103.4z"/>
<path d="M105.9,99.8l-9.6-38.7c-0.9-3.8-4.8-6.1-8.5-5.1c-3.8,0.9-6.1,4.7-5.1,8.5l10.1,40.6c0.1,0.2,0.1,0.4,0.2,0.6
	c0.1,0.1,0.1,0.3,0.1,0.4c0.3,0.8,0.8,1.6,1.4,2.2c0,0,0,0,0.1,0.1l17.5,17.5c1.4,1.4,3.2,2.1,5,2.1s3.6-0.7,5-2.1
	c2.7-2.7,2.7-7.2,0-9.9L105.9,99.8z"/>
<path d="M66.8,30.7c3.5-1.6,5.1-5.8,3.5-9.3c-1.6-3.5-5.8-5.1-9.3-3.5c-19.3,8.7-35.3,23.9-45,42.8c-1.8,3.5-0.4,7.7,3,9.5
	c1,0.5,2.1,0.8,3.2,0.8c2.5,0,5-1.4,6.3-3.8C36.8,51,50.3,38.1,66.8,30.7z"/>
<path d="M183,60.6c-9.7-18.9-25.7-34-45-42.7c-3.5-1.6-7.7,0-9.3,3.5c-1.6,3.5,0,7.7,3.5,9.3c16.4,7.4,30,20.3,38.2,36.4
	c1.2,2.4,3.7,3.8,6.3,3.8c1.1,0,2.2-0.3,3.2-0.8C183.4,68.3,184.7,64,183,60.6z"/>
</svg>
