<?xml version="1.0" encoding="utf-8"?>
<!-- Generator: Adobe Illustrator 26.0.2, SVG Export Plug-In . SVG Version: 6.00 Build 0)  -->
<svg version="1.1" id="Lager_1" xmlns="http://www.w3.org/2000/svg" xmlns:xlink="http://www.w3.org/1999/xlink" x="0px" y="0px"
	 viewBox="0 0 200 200" style="enable-background:new 0 0 200 200;" xml:space="preserve">
<style type="text/css">
	.st0{stroke:#000000;stroke-width:10.0478;stroke-miterlimit:2.5082;}
	.st1{stroke:#000000;stroke-width:8.9852;stroke-miterlimit:2.5082;}
</style>
<g>
	<path class="st0" d="M146.3,56.3c-2.2-2.2-5.7-2.2-7.9,0s-2.2,5.9,0,8.1c10.3,10.5,15.9,24.5,15.9,39.4s-5.7,28.8-15.9,39.4
		c-10.6,10.9-24.5,16.3-38.4,16.3s-27.8-5.4-38.4-16.3c-21.2-21.7-21.2-57,0-78.7c2.2-2.2,2.2-5.9,0-8.1c-2.2-2.2-5.7-2.2-7.9,0
		c-25.5,26.2-25.5,68.7,0,94.9c12.8,13.1,29.5,19.6,46.3,19.6s33.5-6.5,46.3-19.6c12.4-12.7,19.2-29.5,19.2-47.5
		C165.5,85.9,158.7,69,146.3,56.3z"/>
	<path class="st1" d="M100,88.5c3.1,0,5.6-2.1,5.6-4.6V33.7c0-2.5-2.5-4.6-5.6-4.6s-5.6,2.1-5.6,4.6v50.2
		C94.4,86.4,96.9,88.5,100,88.5z"/>
</g>
</svg>
