<?xml version="1.0" encoding="utf-8"?>
<!-- Generator: Adobe Illustrator 26.0.2, SVG Export Plug-In . SVG Version: 6.00 Build 0)  -->
<svg version="1.1" id="Lager_1" xmlns="http://www.w3.org/2000/svg" xmlns:xlink="http://www.w3.org/1999/xlink" x="0px" y="0px"
	 viewBox="0 0 200 200" style="enable-background:new 0 0 200 200;" xml:space="preserve">
<style type="text/css">
	.st0{stroke:#000000;stroke-width:5.3726;stroke-miterlimit:3.125;}
</style>
<path d="M100,1.6C45.8,1.6,1.6,45.8,1.6,100s44.1,98.4,98.4,98.4s98.4-44.1,98.4-98.4S154.2,1.6,100,1.6z M100,182
	c-45.2,0-82-36.8-82-82s36.8-82,82-82s82,36.8,82,82S145.2,182,100,182z"/>
<path class="st0" d="M78.8,109.1h-0.4c-5.9,0-8.2-4.1-5.2-9.1l28.1-46.2c6.4-10.5,8.4-9.6,4.6,2.1l-8.6,26
	c-1.9,5.6,1.4,10.1,7.3,10.1h16.5l-0.1,0.1h0.4c5.9,0,8.2,4.1,5.2,9.1l-26.9,44.2c-7,11.6-9.3,10.6-5-2.3l7.9-23.8
	c1.9-5.6-1.4-10.1-7.3-10.1L78.8,109.1L78.8,109.1L78.8,109.1z"/>
</svg>
