<?xml version="1.0" encoding="utf-8"?>
<!-- Generator: Adobe Illustrator 26.0.2, SVG Export Plug-In . SVG Version: 6.00 Build 0)  -->
<svg version="1.2" baseProfile="tiny" id="Lager_1" xmlns="http://www.w3.org/2000/svg" xmlns:xlink="http://www.w3.org/1999/xlink"
	 x="0px" y="0px" viewBox="0 0 1080 1080" overflow="visible" xml:space="preserve">
<desc>Created with Fabric.js 5.2.4</desc>
<g id="_x36_5a0d927-29bd-4703-8348-933cb13c135d" transform="matrix(1 0 0 1 540 540)">
	<rect x="-540" y="-540" vector-effect="non-scaling-stroke" display="none" fill="#FFFFFF" width="1080" height="1080"/>
</g>
<g id="ea388c85-7640-4490-9e6e-62bd9c691496" transform="matrix(1 0 0 1 540 540)">
</g>
<g transform="matrix(3.39 0 0 3.39 540 555.54)">
	<g vector-effect="non-scaling-stroke">
		<g transform="matrix(1 0 0 1 -0.05 12.3)">
			<path vector-effect="non-scaling-stroke" d="M0.1,114L35.6-85.6c33.8,0,44.5,3.7,46,18.8c0,0,22.7-8.5,34.1-25.6
				C71.1-113.1,26.2-114,26.2-114L0-82.1h0.1L-26.1-114c0,0-44.9,0.9-89.5,21.6c11.4,17.2,34.1,25.6,34.1,25.6
				c1.5-15.1,12.2-18.8,45.8-18.9L0.1,114"/>
		</g>
		<g transform="matrix(1 0 0 1 0 -106.55)">
			<path vector-effect="non-scaling-stroke" d="M0-4.3c36.1-0.3,77.4,5.6,119.7,24C125.4,9.5,126.8,5,126.8,5
				C80.6-13.3,37.3-19.5,0-19.7C-37.3-19.5-80.6-13.3-126.8,5c0,0,2.1,5.5,7.1,14.7C-77.4,1.2-36.1-4.6,0-4.3L0-4.3"/>
		</g>
	</g>
</g>
</svg>
