<svg xmlns="http://www.w3.org/2000/svg"   viewBox="0 0 283.5 283.5" ><g><path d="M143.7,271.7l35.5-199.5c33.8,0,44.5,3.7,46,18.8c0,0,22.7-8.5,34.1-25.6c-44.6-20.7-89.5-21.6-89.5-21.6l-26.2,31.9h0.1l-26.2-31.9c0,0-44.9,0.9-89.5,21.6C39.4,82.6,62.1,91,62.1,91c1.5-15.1,12.2-18.8,45.8-18.9L143.7,271.7"/><path d="M143.7,34.6c36.1-0.3,77.4,5.6,119.7,24c5.7-10.2,7.1-14.7,7.1-14.7C224.3,25.6,181,19.4,143.7,19.2c-37.3,0.2-80.6,6.4-126.8,24.7c0,0,2.1,5.5,7.1,14.7C66.3,40.1,107.6,34.3,143.7,34.6L143.7,34.6"/></g></svg>