<?xml version="1.0" encoding="utf-8"?>
<!-- Generator: Adobe Illustrator 26.0.2, SVG Export Plug-In . SVG Version: 6.00 Build 0)  -->
<svg version="1.1" id="Lager_1" xmlns="http://www.w3.org/2000/svg" xmlns:xlink="http://www.w3.org/1999/xlink" x="0px" y="0px"
	 viewBox="0 0 200 200" style="enable-background:new 0 0 200 200;" xml:space="preserve">
<g>
	<path d="M124.2,85.2c-4.9-8-13.8-13.4-23.8-13.4s-18.9,5.4-23.8,13.4c-2.6,4.2-4.1,9.2-4.1,14.5s1.5,10.3,4.1,14.5
		c2.3,3.8,5.5,7,9.4,9.4c4.2,2.6,9.2,4.1,14.5,4.1s10.3-1.5,14.5-4.1c3.8-2.3,7-5.5,9.4-9.4c2.6-4.2,4.1-9.2,4.1-14.5
		C128.3,94.4,126.8,89.4,124.2,85.2z M100.4,114.6c-8.2,0-14.9-6.7-14.9-14.9s6.7-14.9,14.9-14.9s14.9,6.7,14.9,14.9
		S108.6,114.6,100.4,114.6z"/>
	<path d="M100.4-0.3c-55.2,0-100,44.8-100,100s44.8,100,100,100s100-44.8,100-100S155.6-0.3,100.4-0.3z M185.7,114.9
		c-0.2,1.1-0.4,2.3-0.7,3.4c-7.2,32.9-33.2,58.9-66.1,66.1c-1.1,0.3-2.3,0.5-3.5,0.7c-5,0.9-10.1,1.3-15.1,1.3
		c-5.1,0-10.2-0.4-15.1-1.3l-0.1,0c-1.1-0.2-2.3-0.4-3.4-0.7c-32.9-7.2-58.9-33.2-66.1-66.1c-0.3-1.1-0.5-2.3-0.7-3.5
		c-0.9-5-1.3-10.1-1.3-15.1c0-5.1,0.4-10.2,1.3-15.1l0-0.1c0.2-1.1,0.4-2.2,0.7-3.3c4-18.5,14.1-35.2,28.7-47.6
		C52,27.1,60.7,22,70,18.5c9.7-3.6,19.9-5.5,30.3-5.5c10.4,0,20.6,1.8,30.3,5.5c9.4,3.5,18,8.6,25.7,15.1
		C170.9,45.9,181,62.6,185,81.1c0.3,1.1,0.5,2.3,0.7,3.5c0.9,5,1.3,10.1,1.3,15.1C187,104.8,186.6,109.9,185.7,114.9L185.7,114.9z"
		/>
	<path d="M73.6,81.4l-54.2,3.9c-0.8,4.7-1.3,9.5-1.3,14.4c0,4.9,0.4,9.7,1.3,14.4l54.2,3.9c-3.6-5.2-5.6-11.5-5.6-18.2
		C68,92.9,70.1,86.6,73.6,81.4z"/>
	<path d="M127.1,81.4c3.6,5.2,5.6,11.5,5.6,18.2s-2.1,13-5.6,18.2l54.2-3.9c0.8-4.7,1.3-9.5,1.3-14.4s-0.4-9.7-1.3-14.4L127.1,81.4z
		"/>
	<path d="M82.1,126.4l3.9,54.2c4.7,0.8,9.5,1.3,14.4,1.3c4.9,0,9.7-0.4,14.4-1.3l3.9-54.2c-5.2,3.6-11.5,5.6-18.2,5.6
		C93.6,132.1,87.3,130,82.1,126.4z"/>
</g>
</svg>
