<?xml version="1.0" encoding="utf-8"?>
<!-- Generator: Adobe Illustrator 26.0.2, SVG Export Plug-In . SVG Version: 6.00 Build 0)  -->
<svg version="1.1"
	 id="Lager_1" shape-rendering="geometricPrecision" text-rendering="geometricPrecision" image-rendering="optimizeQuality"
	 xmlns="http://www.w3.org/2000/svg" xmlns:xlink="http://www.w3.org/1999/xlink" x="0px" y="0px" viewBox="0 0 131.2 260.8"
	 style="enable-background:new 0 0 131.2 260.8;" xml:space="preserve">
<style type="text/css">
	.st0{fill-rule:evenodd;clip-rule:evenodd;}
</style>
<path class="st0" d="M79.2,99.9V31.5c0-5.7-2.3-10.9-6.1-14.7c-3.8-3.8-9-6.1-14.7-6.1S47.4,13,43.6,16.8c-3.8,3.8-6.1,9-6.1,14.7
	v131.6c-14.5,7.4-24.3,22.5-24.3,39.8c0,24.7,20,44.7,44.7,44.7s44.7-20,44.7-44.7c0-17-9.4-31.7-23.4-39.3
	C79.2,163.6,79.2,99.9,79.2,99.9z M67,171.3c13.7,3.9,23.8,16.6,23.8,31.6c0,18.2-14.7,32.9-32.9,32.9c-18.2,0-32.9-14.7-32.9-32.9
	c0-15,10-27.7,23.8-31.6V55.5c0-11.3,18.2-10.9,18.2,0V171.3z M101.2,36.4v-9.7h25.2c2.7,0,4.8,2.2,4.8,4.8c0,2.7-2.2,4.8-4.8,4.8
	H101.2z M101.2,62.9v-9.7h25.2c2.7,0,4.8,2.2,4.8,4.8s-2.2,4.8-4.8,4.8H101.2z M101.2,89.3v-9.7h25.2c2.7,0,4.8,2.2,4.8,4.8
	s-2.2,4.8-4.8,4.8H101.2z M101.2,115.7V106h25.2c2.7,0,4.8,2.2,4.8,4.8s-2.2,4.8-4.8,4.8C126.4,115.7,101.2,115.7,101.2,115.7z
	 M101.2,142.1v-9.7h25.2c2.7,0,4.8,2.2,4.8,4.8c0,2.7-2.2,4.8-4.8,4.8H101.2z M89.9,154.7c15.6,10.4,25.8,28.1,25.8,48.2
	c0,32-25.9,57.9-57.9,57.9S0,234.9,0,202.9c0-20.5,10.7-38.6,26.8-48.8V31.5c0-8.7,3.5-16.6,9.3-22.3C41.8,3.5,49.7,0,58.4,0
	s16.6,3.5,22.3,9.3c5.7,5.7,9.3,13.6,9.3,22.3L89.9,154.7L89.9,154.7z"/>
</svg>
